{"title":"Kara Sevda S01E30.DVB-T.X264.ARI Greek Subs","uid":15355305,"size":449063215,"categoryP":"video","categoryS":"tv_shows","magnet":"?xt=urn:btih:ac69be223ebd06cfc52e3fe88e5226aada0819d3&amp;dn=Kara+Sevda+S01E30.DVB-T.X264.ARI+Greek+Subs&amp;tr=udp%3A%2F%2Ftracker.leechers-paradise.org%3A6969&amp;tr=udp%3A%2F%2Fzer0day.ch%3A1337&amp;tr=udp%3A%2F%2Fopen.demonii.com%3A1337&amp;tr=udp%3A%2F%2Ftracker.coppersurfer.tk%3A6969&amp;tr=udp%3A%2F%2Fexodus.desync.com%3A6969","seeders":6,"leechers":1,"uploader":"Aris2015","files":1,"time":1468965170,"description":"General\r\nComplete name               : Kara Sevda S01E30.DVB-T.X264.ARI.mp4\r\nFormat                      : MPEG-4\r\nFormat profile              : Base Media\r\nCodec ID                    : isom (isom/iso2/avc1/mp41)\r\nFile size                   : 428 MiB\r\nDuration                    : 47mn 58s\r\nOverall bit rate mode       : Variable\r\nOverall bit rate            : 1 248 Kbps\r\nWriting application         : Lavf54.63.104\r\n\r\nVideo\r\nID                          : 1\r\nFormat                      : AVC\r\nFormat/Info                 : Advanced Video Codec\r\nFormat profile              :   \r\nFormat settings, CABAC      : Yes\r\nFormat settings, ReFrames   : 3 frames\r\nCodec ID                    : avc1\r\nCodec ID/Info               : Advanced Video Coding\r\nDuration                    : 47mn 58s\r\nBit rate mode               : Variable\r\nBit rate                    : 1 117 Kbps\r\nMaximum bit rate            : 9 800 Kbps\r\nWidth                       : 720 pixels\r\nHeight                      : 576 pixels\r\nDisplay aspect ratio        : 16:9\r\nOriginal display aspect rat : 16:9\r\nFrame rate mode             : Constant\r\nFrame rate                  : 25.000 fps\r\nStandard                    : PAL\r\nColor space                 : YUV\r\nChroma subsampling          : 4:2:0\r\nBit depth                   : 8 bits\r\nScan type                   : Interlaced\r\nScan type, store method     : Separated fields\r\nScan order                  : Top Field First\r\nBits/(Pixel*Frame)          : 0.108\r\nStream size                 : 383 MiB (89%)\r\nColor range                 : Limited\r\n\r\nAudio\r\nID                          : 2\r\nFormat                      : AAC\r\nFormat/Info                 : Advanced Audio Codec\r\nFormat profile              : LC\r\nCodec ID                    : 40\r\nDuration                    : 47mn 58s\r\nDuration_LastFrame          : -21ms\r\nBit rate mode               : Variable\r\nBit rate                    : 125 Kbps\r\nMaximum bit rate            : 128 Kbps\r\nChannel(s)                  : 2 channels\r\nChannel positions           : Front: L R\r\nSampling rate               : 48.0 KHz\r\nFrame rate                  : 46.875 fps (1024 spf)\r\nCompression mode            : Lossy\r\nStream size                 : 43.0 MiB (10%)\r\nLanguage                    : Turkish\r\nDefault                     : Yes","torrent":{"xt":"urn:btih:ac69be223ebd06cfc52e3fe88e5226aada0819d3","amp;dn":"Kara+Sevda+S01E30.DVB-T.X264.ARI+Greek+Subs","amp;tr":["udp%3A%2F%2Ftracker.leechers-paradise.org%3A6969","udp%3A%2F%2Fzer0day.ch%3A1337","udp%3A%2F%2Fopen.demonii.com%3A1337","udp%3A%2F%2Ftracker.coppersurfer.tk%3A6969","udp%3A%2F%2Fexodus.desync.com%3A6969"],"infoHash":"ac69be223ebd06cfc52e3fe88e5226aada0819d3","infoHashBuffer":{"type":"Buffer","data":[172,105,190,34,62,189,6,207,197,46,63,232,142,82,38,170,218,8,25,211]},"announce":[],"urlList":[]}}